<svg xmlns="http://www.w3.org/2000/svg" width="24" height="24" viewBox="0 0 24 24" fill="none">
    <path d="M17.9731 11.8368L6.9333 5.09C6.84031 5.03318 6.73387 5.00215 6.62491 5.00011C6.51595 4.99807 6.40842 5.02509 6.31337 5.0784C6.21832 5.1317 6.13918 5.20937 6.08411 5.3034C6.02903 5.39744 6 5.50445 6 5.61342V19.107C6 19.216 6.02903 19.323 6.08411 19.417C6.13918 19.511 6.21832 19.5887 6.31337 19.642C6.40842 19.6953 6.51595 19.7223 6.62491 19.7203C6.73387 19.7183 6.84031 19.6872 6.9333 19.6304L17.9731 12.8836C18.0628 12.8288 18.1369 12.7519 18.1883 12.6603C18.2397 12.5686 18.2667 12.4653 18.2667 12.3602C18.2667 12.2551 18.2397 12.1518 18.1883 12.0601C18.1369 11.9685 18.0628 11.8916 17.9731 11.8368Z" fill="black"/>
  </svg>
