<svg xmlns="http://www.w3.org/2000/svg" width="20" height="21" viewBox="0 0 20 21" fill="none">
<g id="Icon / Track Order">
<g id="Union">
<path fill-rule="evenodd" clip-rule="evenodd" d="M2.14052 15.6428H1V4H11.6448V7.87891H15.0657C15.6968 7.87891 16.2063 8.39895 16.2063 9.04319V10.9837H17.3468C18.3961 10.9837 19.2476 11.853 19.2476 12.9241V15.6408H17.3468C17.3361 15.6408 17.3255 15.6404 17.315 15.6395C17.1342 16.7391 16.1917 17.5839 15.0652 17.5839C13.9388 17.5839 12.9963 16.7391 12.8155 15.6396C12.8053 15.6404 12.7951 15.6408 12.7847 15.6408H11.6448V15.6428H6.7026C6.69199 15.6428 6.68149 15.6424 6.67111 15.6415C6.48952 16.7401 5.54743 17.5839 4.42167 17.5839C3.2959 17.5839 2.35381 16.7401 2.17222 15.6415C2.16178 15.6424 2.15121 15.6428 2.14052 15.6428ZM2.17242 14.8679C2.35448 13.7699 3.29631 12.9268 4.42167 12.9268C5.54703 12.9268 6.48885 13.7699 6.67092 14.8679C6.68135 14.867 6.69192 14.8666 6.7026 14.8666H10.8838V7.87891H10.8845V4.77619H1.76034V14.8666H2.14052C2.15127 14.8666 2.16191 14.867 2.17242 14.8679ZM17.3468 14.8646C17.3358 14.8646 17.3249 14.8651 17.3142 14.8659C17.1313 13.7689 16.1899 12.9268 15.0652 12.9268C13.9406 12.9268 12.9992 13.7688 12.8163 14.8659C12.8059 14.865 12.7953 14.8646 12.7847 14.8646H11.6448V8.65509H15.0657C15.2786 8.65509 15.4459 8.82586 15.4459 9.04319V11.7598H17.3468C17.9779 11.7598 18.4873 12.2799 18.4873 12.9241V14.8646H17.3468ZM15.0652 13.7029C15.9016 13.7029 16.5859 14.4015 16.5859 15.2553C16.5859 16.1091 15.9016 16.8077 15.0652 16.8077C14.2289 16.8077 13.5445 16.1091 13.5445 15.2553C13.5445 14.4015 14.2289 13.7029 15.0652 13.7029ZM5.94236 15.2553C5.94236 14.4015 5.25805 13.7029 4.42167 13.7029C3.58528 13.7029 2.90097 14.4015 2.90097 15.2553C2.90097 16.1091 3.58528 16.8077 4.42167 16.8077C5.25805 16.8077 5.94236 16.1091 5.94236 15.2553Z" fill="black"/>
<path d="M1 15.6428H0.75V15.8928H1V15.6428ZM1 4V3.75H0.75V4H1ZM11.6448 4H11.8948V3.75H11.6448V4ZM11.6448 7.87891H11.3948V8.12891H11.6448V7.87891ZM16.2063 10.9837H15.9563V11.2337H16.2063V10.9837ZM19.2476 15.6408V15.8908H19.4976V15.6408H19.2476ZM17.315 15.6395L17.3352 15.3903L17.1057 15.3717L17.0683 15.599L17.315 15.6395ZM12.8155 15.6396L13.0621 15.599L13.0249 15.3724L12.7959 15.3904L12.8155 15.6396ZM11.6448 15.6408V15.3908H11.3948V15.6408H11.6448ZM11.6448 15.6428V15.8928H11.8948V15.6428H11.6448ZM6.67111 15.6415L6.69114 15.3923L6.46196 15.3739L6.42446 15.6008L6.67111 15.6415ZM2.17222 15.6415L2.41888 15.6008L2.38136 15.3738L2.15206 15.3923L2.17222 15.6415ZM2.17242 14.8679L2.15213 15.1171L2.38142 15.1357L2.41905 14.9088L2.17242 14.8679ZM6.67092 14.8679L6.42429 14.9088L6.4619 15.1356L6.69107 15.1171L6.67092 14.8679ZM10.8838 14.8666V15.1166H11.1338V14.8666H10.8838ZM10.8838 7.87891V7.62891H10.6338V7.87891H10.8838ZM10.8845 7.87891V8.12891H11.1345V7.87891H10.8845ZM10.8845 4.77619H11.1345V4.52619H10.8845V4.77619ZM1.76034 4.77619V4.52619H1.51034V4.77619H1.76034ZM1.76034 14.8666H1.51034V15.1166H1.76034V14.8666ZM17.3142 14.8659L17.0676 14.9071L17.1054 15.1342L17.3349 15.1151L17.3142 14.8659ZM12.8163 14.8659L12.7962 15.1151L13.0251 15.1335L13.0629 14.907L12.8163 14.8659ZM11.6448 14.8646H11.3948V15.1146H11.6448V14.8646ZM11.6448 8.65509V8.40509H11.3948V8.65509H11.6448ZM15.4459 11.7598H15.1959V12.0098H15.4459V11.7598ZM18.4873 14.8646V15.1146H18.7373V14.8646H18.4873ZM1 15.8928H2.14052V15.3928H1V15.8928ZM0.75 4V15.6428H1.25V4H0.75ZM11.6448 3.75H1V4.25H11.6448V3.75ZM11.8948 7.87891V4H11.3948V7.87891H11.8948ZM15.0657 7.62891H11.6448V8.12891H15.0657V7.62891ZM16.4563 9.04319C16.4563 8.26574 15.8397 7.62891 15.0657 7.62891V8.12891C15.5539 8.12891 15.9563 8.53216 15.9563 9.04319H16.4563ZM16.4563 10.9837V9.04319H15.9563V10.9837H16.4563ZM17.3468 10.7337H16.2063V11.2337H17.3468V10.7337ZM19.4976 12.9241C19.4976 11.7198 18.539 10.7337 17.3468 10.7337V11.2337C18.2532 11.2337 18.9976 11.9862 18.9976 12.9241H19.4976ZM19.4976 15.6408V12.9241H18.9976V15.6408H19.4976ZM17.3468 15.8908H19.2476V15.3908H17.3468V15.8908ZM17.2948 15.8887C17.312 15.8901 17.3294 15.8908 17.3468 15.8908V15.3908C17.3428 15.3908 17.3389 15.3906 17.3352 15.3903L17.2948 15.8887ZM15.0652 17.8339C16.3202 17.8339 17.3621 16.8943 17.5617 15.6801L17.0683 15.599C16.9064 16.5839 16.0631 17.3339 15.0652 17.3339V17.8339ZM12.5688 15.6802C12.7684 16.8943 13.8103 17.8339 15.0652 17.8339V17.3339C14.0674 17.3339 13.2241 16.584 13.0621 15.599L12.5688 15.6802ZM12.7847 15.8908C12.8016 15.8908 12.8184 15.8901 12.835 15.8888L12.7959 15.3904C12.7923 15.3906 12.7885 15.3908 12.7847 15.3908V15.8908ZM11.6448 15.8908H12.7847V15.3908H11.6448V15.8908ZM11.8948 15.6428V15.6408H11.3948V15.6428H11.8948ZM6.7026 15.8928H11.6448V15.3928H6.7026V15.8928ZM6.65109 15.8907C6.66815 15.8921 6.68534 15.8928 6.7026 15.8928V15.3928C6.69864 15.3928 6.69482 15.3926 6.69114 15.3923L6.65109 15.8907ZM4.42167 17.8339C5.67592 17.8339 6.71725 16.8954 6.91777 15.6823L6.42446 15.6008C6.2618 16.5848 5.41895 17.3339 4.42167 17.3339V17.8339ZM1.92557 15.6823C2.12608 16.8954 3.16742 17.8339 4.42167 17.8339V17.3339C3.42439 17.3339 2.58153 16.5848 2.41888 15.6008L1.92557 15.6823ZM2.14052 15.8928C2.15792 15.8928 2.17522 15.8921 2.19239 15.8907L2.15206 15.3923C2.14834 15.3926 2.1445 15.3928 2.14052 15.3928V15.8928ZM4.42167 12.6768C3.16787 12.6768 2.12683 13.6145 1.92578 14.827L2.41905 14.9088C2.58213 13.9252 3.42474 13.1768 4.42167 13.1768V12.6768ZM6.91755 14.827C6.7165 13.6145 5.67546 12.6768 4.42167 12.6768V13.1768C5.4186 13.1768 6.2612 13.9252 6.42429 14.9088L6.91755 14.827ZM6.7026 14.6166C6.68521 14.6166 6.66792 14.6173 6.65076 14.6187L6.69107 15.1171C6.69479 15.1168 6.69864 15.1166 6.7026 15.1166V14.6166ZM10.8838 14.6166H6.7026V15.1166H10.8838V14.6166ZM10.6338 7.87891V14.8666H11.1338V7.87891H10.6338ZM10.8845 7.62891H10.8838V8.12891H10.8845V7.62891ZM10.6345 4.77619V7.87891H11.1345V4.77619H10.6345ZM1.76034 5.02619H10.8845V4.52619H1.76034V5.02619ZM2.01034 14.8666V4.77619H1.51034V14.8666H2.01034ZM2.14052 14.6166H1.76034V15.1166H2.14052V14.6166ZM2.19271 14.6187C2.17544 14.6173 2.15803 14.6166 2.14052 14.6166V15.1166C2.14452 15.1166 2.14839 15.1168 2.15213 15.1171L2.19271 14.6187ZM17.3349 15.1151C17.3387 15.1148 17.3427 15.1146 17.3468 15.1146V14.6146C17.3289 14.6146 17.3111 14.6153 17.2934 14.6168L17.3349 15.1151ZM15.0652 13.1768C16.0616 13.1768 16.9038 13.9244 17.0676 14.9071L17.5608 14.8248C17.3588 13.6134 16.3183 12.6768 15.0652 12.6768V13.1768ZM13.0629 14.907C13.2267 13.9243 14.0689 13.1768 15.0652 13.1768V12.6768C13.8122 12.6768 12.7717 13.6134 12.5697 14.8248L13.0629 14.907ZM12.7847 15.1146C12.7887 15.1146 12.7925 15.1148 12.7962 15.1151L12.8364 14.6167C12.8193 14.6153 12.802 14.6146 12.7847 14.6146V15.1146ZM11.6448 15.1146H12.7847V14.6146H11.6448V15.1146ZM11.3948 8.65509V14.8646H11.8948V8.65509H11.3948ZM15.0657 8.40509H11.6448V8.90509H15.0657V8.40509ZM15.6959 9.04319C15.6959 8.69266 15.4215 8.40509 15.0657 8.40509V8.90509C15.1357 8.90509 15.1959 8.95906 15.1959 9.04319H15.6959ZM15.6959 11.7598V9.04319H15.1959V11.7598H15.6959ZM17.3468 11.5098H15.4459V12.0098H17.3468V11.5098ZM18.7373 12.9241C18.7373 12.1467 18.1208 11.5098 17.3468 11.5098V12.0098C17.835 12.0098 18.2373 12.4131 18.2373 12.9241H18.7373ZM18.7373 14.8646V12.9241H18.2373V14.8646H18.7373ZM17.3468 15.1146H18.4873V14.6146H17.3468V15.1146ZM16.8359 15.2553C16.8359 14.2683 16.0445 13.4529 15.0652 13.4529V13.9529C15.7587 13.9529 16.3359 14.5347 16.3359 15.2553H16.8359ZM15.0652 17.0577C16.0445 17.0577 16.8359 16.2423 16.8359 15.2553H16.3359C16.3359 15.9759 15.7587 16.5577 15.0652 16.5577V17.0577ZM13.2945 15.2553C13.2945 16.2423 14.086 17.0577 15.0652 17.0577V16.5577C14.3718 16.5577 13.7945 15.9759 13.7945 15.2553H13.2945ZM15.0652 13.4529C14.086 13.4529 13.2945 14.2683 13.2945 15.2553H13.7945C13.7945 14.5347 14.3718 13.9529 15.0652 13.9529V13.4529ZM4.42167 13.9529C5.11514 13.9529 5.69236 14.5347 5.69236 15.2553H6.19236C6.19236 14.2683 5.40097 13.4529 4.42167 13.4529V13.9529ZM3.15097 15.2553C3.15097 14.5347 3.7282 13.9529 4.42167 13.9529V13.4529C3.44237 13.4529 2.65097 14.2683 2.65097 15.2553H3.15097ZM4.42167 16.5577C3.7282 16.5577 3.15097 15.9759 3.15097 15.2553H2.65097C2.65097 16.2423 3.44237 17.0577 4.42167 17.0577V16.5577ZM5.69236 15.2553C5.69236 15.9759 5.11514 16.5577 4.42167 16.5577V17.0577C5.40097 17.0577 6.19236 16.2423 6.19236 15.2553H5.69236Z" fill="#221E1F"/>
</g>
</g>
</svg>
