<svg width="51" height="13" viewBox="0 0 51 13" fill="none" xmlns="http://www.w3.org/2000/svg">
<path d="M2.82513 12.8051H0V0.902344H2.96974C6.94737 0.902344 9.19841 3.57566 9.19841 6.82245C9.19841 10.1318 6.81788 12.8051 2.82513 12.8051ZM2.93736 2.36836H1.5971V11.3369H2.63521C6.08408 11.3369 7.53873 9.05382 7.53873 6.83539C7.53657 4.40784 5.73228 2.36836 2.93736 2.36836Z" fill="#333333"/>
<path d="M10.0273 12.8051V0.902344H16.5431V2.43519H11.6244V6.23389H14.4884V7.76674H11.6244V11.2722H16.8474V12.8051H10.0273Z" fill="#333333"/>
<path d="M23.0101 13C20.1677 13 17.293 10.635 17.293 6.85352C17.293 3.4127 19.721 0.707031 23.0749 0.707031C25.1835 0.707031 26.4439 1.44004 27.387 2.56542L26.2043 3.64122C25.4058 2.79395 24.3828 2.30456 23.1051 2.30456C20.8368 2.30456 18.9527 4.09827 18.9527 6.82117C18.9527 9.88687 21.2512 11.4025 23.0404 11.4025C24.1583 11.4025 25.4684 10.9454 26.4568 9.75536L27.6072 10.7665C26.7158 12.0363 25.054 13 23.0101 13Z" fill="#333333"/>
<path d="M28.3418 12.8051V0.902344H29.9389V12.8051H28.3418Z" fill="#333333"/>
<path d="M31.252 12.8051V0.902344H37.7677V2.43519H32.8491V6.23389H35.713V7.76674H32.8491V11.2722H38.072V12.8051H31.252Z" fill="#333333"/>
<path d="M48.8312 12.8034V4.04606C48.8312 3.83478 48.8636 3.589 48.8636 3.589C48.8636 3.589 48.7686 3.78519 48.7039 3.86712L45.0478 8.90547H44.409L40.7205 3.99648C40.6558 3.91455 40.5608 3.73561 40.5608 3.73561C40.5608 3.73561 40.5932 3.96414 40.5932 4.17542V12.8012H38.9961V0.898438H40.3536L44.7456 6.71939L49.0103 0.898438H50.4326V12.8012H48.8312V12.8034Z" fill="#333333"/>
</svg>
