<svg width="14" height="14" viewBox="0 0 14 14" fill="none" xmlns="http://www.w3.org/2000/svg">
<path d="M14 0H0V14H14V0Z" fill="#757575"/>
<path d="M3.5 3.00522C3.5 2.89232 3.60069 2.80078 3.71664 2.80078H4.00041L8.91603 8.48837H8.92823V3.13032C8.92823 3.01742 9.01977 2.91368 9.14487 2.91368H9.87108C9.98397 2.91368 10.0877 3.01437 10.0877 3.13032V10.7555C10.0877 10.8684 9.98702 10.9599 9.87108 10.9599H9.5751L4.65644 5.1106H4.64423V10.6273C4.64423 10.7402 4.55269 10.8409 4.42759 10.8409H3.71664C3.60374 10.8409 3.5 10.7402 3.5 10.6273V3.00522Z" fill="white"/>
</svg>
