<svg width="128" height="128" viewBox="0 0 128 128" fill="none" xmlns="http://www.w3.org/2000/svg">
<path d="M60.3783 99.2721C55.3601 99.2721 50.8143 98.2631 46.7282 96.2584C42.6421 94.2402 39.1434 91.5673 36.2192 88.2385C33.2951 84.9102 31.0223 81.097 29.4261 76.8121C27.8045 72.5139 27 68.1242 27 63.6295C27 58.9514 27.8555 54.4568 29.5538 50.1718C31.2521 45.8869 33.6016 42.0867 36.5896 38.7845C39.5775 35.4823 43.1273 32.8615 47.2518 30.9222C51.3762 28.9828 55.8326 28 60.6593 28C65.6137 28 70.1339 29.0352 74.2073 31.1187C78.2934 33.2022 81.7791 35.9148 84.6779 39.2825C87.5767 42.6501 89.8239 46.4765 91.4329 50.7615C93.0419 55.0464 93.8461 59.41 93.8461 63.8261C93.8461 68.5172 93.0034 72.9857 91.3434 77.2444C89.6707 81.5033 87.3591 85.264 84.3972 88.5271C81.4473 91.7896 77.8975 94.3974 73.7859 96.3499C69.6615 98.3024 65.2051 99.2721 60.3783 99.2721ZM40.5097 63.6295C40.5097 66.6696 40.9566 69.6049 41.8632 72.4353C42.7698 75.2789 44.0723 77.7817 45.7706 79.957C47.4816 82.1322 49.563 83.8882 52.0401 85.1983C54.5173 86.5218 57.3266 87.1772 60.4805 87.1772C63.6983 87.1772 66.5458 86.5089 69.023 85.1461C71.5002 83.7964 73.5943 81.9881 75.2926 79.7473C76.9909 77.5066 78.2806 74.9775 79.1489 72.1732C80.0174 69.369 80.4514 66.5124 80.4514 63.6164C80.4514 60.5763 79.9916 57.641 79.0595 54.8106C78.1274 51.9802 76.7994 49.4642 75.1011 47.289C73.3901 45.1137 71.3087 43.384 68.8315 42.0867C66.3543 40.7894 63.5706 40.1604 60.4933 40.1604C57.2755 40.1604 54.4152 40.8418 51.9124 42.1915C49.4097 43.5412 47.3156 45.3233 45.6428 47.5379C43.9701 49.7525 42.7059 52.2553 41.8377 55.0596C40.9438 57.8769 40.5097 60.7335 40.5097 63.6295Z" fill="black"/>
<path d="M96.0222 94.6047V80.6772H105.999V94.6047H96.0222Z" fill="black"/>
</svg>
