<svg width="42" height="42" viewBox="0 0 42 42" fill="none" xmlns="http://www.w3.org/2000/svg">
<g clip-path="url(#clip0)">
<circle cx="20.9998" cy="20.9998" r="20.8333" fill="black"/>
<path d="M31.4163 10.583H10.583V31.4163H31.4163V10.583Z" fill="white"/>
<path d="M16.6118 15.7261L16.5819 15.6915H16.5362H16.1139C15.8928 15.6915 15.6915 15.866 15.6915 16.0957V27.4381C15.6915 27.6632 15.8925 27.856 16.1139 27.856H17.1718C17.4151 27.856 17.5942 27.6595 17.5942 27.4381V19.4814L24.7553 27.9974L24.7853 28.0331H24.8318H25.2723C25.4934 28.0331 25.6947 27.8585 25.6947 27.6288V16.2819C25.6947 16.0532 25.4946 15.8595 25.2723 15.8595H24.1916C23.9466 15.8595 23.7692 16.0624 23.7692 16.2819V24.0076L16.6118 15.7261Z" fill="black" stroke="black" stroke-width="0.2"/>
</g>
<defs>
<clipPath id="clip0">
<rect width="41.6667" height="41.6667" fill="white" transform="translate(0.166504 0.166504)"/>
</clipPath>
</defs>
</svg>
