<svg width="15" height="16" viewBox="0 0 15 16" fill="none" style="filter: invert(1);" xmlns="http://www.w3.org/2000/svg">
    <path fill-rule="evenodd" clip-rule="evenodd" d="M5.19923 7.27067C5.19923 4.73288 7.25654 2.6756 9.79437 2.6756C12.3322 2.6756 14.3895 4.73288 14.3895 7.27067C14.3895 9.80845 12.3322 11.8657 9.79437 11.8657C7.25654 11.8657 5.19923 9.80845 5.19923 7.27067ZM9.79437 2.06494C6.91928 2.06494 4.58856 4.39562 4.58856 7.27067C4.58856 10.1457 6.91928 12.4764 9.79437 12.4764C12.6695 12.4764 15.0002 10.1457 15.0002 7.27067C15.0002 4.39562 12.6695 2.06494 9.79437 2.06494ZM0.610671 11.3205C0.610671 10.1725 1.54133 9.24188 2.68935 9.24188C3.83737 9.24188 4.76803 10.1725 4.76803 11.3205C4.76803 12.4685 3.83737 13.3992 2.68935 13.3992C1.54133 13.3992 0.610671 12.4685 0.610671 11.3205ZM2.68935 8.63122C1.20406 8.63122 0 9.83527 0 11.3205C0 12.8058 1.20406 14.0098 2.68935 14.0098C4.17464 14.0098 5.3787 12.8058 5.3787 11.3205C5.3787 9.83527 4.17464 8.63122 2.68935 8.63122Z" fill="black"/>
    </svg>
