<svg width="42" height="42" viewBox="0 0 42 42" fill="none" xmlns="http://www.w3.org/2000/svg">
<g clip-path="url(#clip0)">
<circle cx="20.9998" cy="20.9998" r="20.8333" fill="black"/>
<path d="M19.943 31.4167C18.2226 31.4167 16.6642 31.0922 15.2634 30.4476C13.8625 29.7987 12.6631 28.9392 11.6606 27.869C10.6582 26.7988 9.87894 25.5727 9.33174 24.1949C8.77579 22.8129 8.5 21.4014 8.5 19.9562C8.5 18.452 8.7933 17.0068 9.37552 15.6291C9.95774 14.2513 10.7632 13.0294 11.7876 11.9676C12.8119 10.9058 14.0289 10.0632 15.4429 9.43959C16.8568 8.816 18.3846 8.5 20.0393 8.5C21.7378 8.5 23.2875 8.83286 24.6839 9.50279C26.0848 10.1727 27.2798 11.0449 28.2736 12.1277C29.2673 13.2106 30.0377 14.4409 30.5893 15.8187C31.1409 17.1965 31.4167 18.5995 31.4167 20.0194C31.4167 21.5278 31.1277 22.9646 30.5587 24.3339C29.9852 25.7033 29.1929 26.9125 28.1773 27.9617C27.166 29.0108 25.9491 29.8493 24.5395 30.4771C23.1255 31.1049 21.5977 31.4167 19.943 31.4167ZM13.1315 19.9562C13.1315 20.9337 13.2847 21.8775 13.5955 22.7876C13.9063 23.7019 14.3528 24.5067 14.9351 25.2061C15.5216 25.9055 16.2352 26.4701 17.0844 26.8915C17.9337 27.317 18.8968 27.5277 19.978 27.5277C21.0812 27.5277 22.0574 27.3128 22.9066 26.8746C23.7559 26.4406 24.4738 25.8592 25.056 25.1387C25.6383 24.4182 26.0804 23.605 26.3781 22.7034C26.6757 21.8017 26.8246 20.8832 26.8246 19.952C26.8246 18.9745 26.667 18.0307 26.3474 17.1206C26.0279 16.2105 25.5726 15.4015 24.9904 14.7021C24.4038 14.0027 23.6902 13.4465 22.841 13.0294C21.9917 12.6123 21.0374 12.41 19.9824 12.41C18.8793 12.41 17.8987 12.6291 17.0407 13.0631C16.1827 13.4971 15.4647 14.0701 14.8913 14.7822C14.3178 15.4942 13.8844 16.299 13.5868 17.2007C13.2803 18.1065 13.1315 19.0251 13.1315 19.9562Z" fill="white"/>
<path d="M32.1631 29.9157V25.4375H35.5835V29.9157H32.1631Z" fill="white"/>
</g>
<defs>
<clipPath id="clip0">
<rect width="41.6667" height="41.6667" fill="white" transform="translate(0.166504 0.166504)"/>
</clipPath>
</defs>
</svg>
