<svg width="14" height="14" viewBox="0 0 14 14" fill="none" xmlns="http://www.w3.org/2000/svg">
<path d="M14 0H0V14H14V0Z" fill="#000000"/>
<path d="M3.5 3.00424C3.5 2.89134 3.60069 2.7998 3.71664 2.7998H4.00041L8.91603 8.48739H8.92823V3.12934C8.92823 3.01645 9.01977 2.9127 9.14487 2.9127H9.87108C9.98397 2.9127 10.0877 3.01339 10.0877 3.12934V10.7545C10.0877 10.8674 9.98702 10.9589 9.87108 10.9589H9.5751L4.65644 5.10962H4.64423V10.6263C4.64423 10.7392 4.55269 10.8399 4.42759 10.8399H3.71664C3.60374 10.8399 3.5 10.7392 3.5 10.6263V3.00424Z" fill="white"/>
</svg>
