<svg width="50" height="13" viewBox="0 0 50 13" fill="none" xmlns="http://www.w3.org/2000/svg">
<path d="M2.80085 11.9938H0V0.193359H2.94421C6.88765 0.193359 9.11935 2.8437 9.11935 6.06258C9.11935 9.34345 6.75927 11.9938 2.80085 11.9938ZM2.91211 1.64677H1.58337V10.5382H2.61256C6.03178 10.5382 7.47393 8.27477 7.47393 6.07541C7.47179 3.66873 5.68301 1.64677 2.91211 1.64677Z" fill="#FFFCFA"/>
<path d="M9.94092 11.9938V0.193359H16.4006V1.71303H11.5243V5.47908H14.3636V6.99875H11.5243V10.4741H16.7023V11.9938H9.94092Z" fill="#FFFCFA"/>
<path d="M22.8133 12.1873C19.9953 12.1873 17.1453 9.84261 17.1453 6.09366C17.1453 2.68241 19.5524 0 22.8775 0C24.968 0 26.2175 0.726706 27.1526 1.84241L25.98 2.90897C25.1883 2.06898 24.1741 1.5838 22.9074 1.5838C20.6586 1.5838 18.7907 3.36209 18.7907 6.06159C18.7907 9.10093 21.0694 10.6035 22.8432 10.6035C23.9516 10.6035 25.2504 10.1504 26.2304 8.97055L27.3708 9.97299C26.4871 11.2319 24.8396 12.1873 22.8133 12.1873Z" fill="#FFFCFA"/>
<path d="M28.1003 11.9938V0.193359H29.6837V11.9938H28.1003Z" fill="#FFFCFA"/>
<path d="M30.9827 11.9938V0.193359H37.4424V1.71303H32.566V5.47908H35.4054V6.99875H32.566V10.4741H37.7441V11.9938H30.9827Z" fill="#FFFCFA"/>
<path d="M48.4124 11.992V3.31002C48.4124 3.10056 48.4445 2.85689 48.4445 2.85689C48.4445 2.85689 48.3504 3.0514 48.2862 3.13262L44.6615 8.12766H44.0282L40.3715 3.26086C40.3073 3.17964 40.2131 3.00223 40.2131 3.00223C40.2131 3.00223 40.2452 3.2288 40.2452 3.43826V11.9899H38.6619V0.189453H40.0077L44.362 5.96037L48.59 0.189453H50.0001V11.9899H48.4124V11.992Z" fill="#FFFCFA"/>
</svg>
